<svg xmlns="http://www.w3.org/2000/svg" viewBox="0 0 305.87 36.84"><g id="Layer_2" data-name="Layer 2"><g id="Layer_1-2" data-name="Layer 1"><path d="M5.18,9.25a2.88,2.88,0,0,0-.59-.05A3.41,3.41,0,0,0,1.22,12L.05,18.63a3.43,3.43,0,0,0,2.78,4,3,3,0,0,0,.6,0A3.42,3.42,0,0,0,6.8,19.82L8,13.21A3.43,3.43,0,0,0,5.18,9.25Z" fill="#66cc8a"/><path d="M14.74,6.21a4,4,0,0,0-.6,0A3.41,3.41,0,0,0,10.77,9L8.53,21.67a3.43,3.43,0,0,0,2.78,4,4,4,0,0,0,.6.05,3.42,3.42,0,0,0,3.37-2.83l2.23-12.68A3.43,3.43,0,0,0,14.74,6.21Z" fill="#66cc8a"/><path d="M26.5,4.08a3.42,3.42,0,0,0-2.21-1.41,4,4,0,0,0-.6,0,3.42,3.42,0,0,0-3.37,2.83L16.84,25.21a3.42,3.42,0,0,0,2.77,4,4,4,0,0,0,.6.05,3.42,3.42,0,0,0,3.37-2.83L27.06,6.64A3.42,3.42,0,0,0,26.5,4.08Z" fill="#66cc8a"/><path d="M32.23,9.25a3,3,0,0,0-.6-.05A3.4,3.4,0,0,0,28.27,12l-1.17,6.6a3.43,3.43,0,0,0,2.78,4,2.94,2.94,0,0,0,.59,0,3.41,3.41,0,0,0,3.37-2.83L35,13.21A3.43,3.43,0,0,0,32.23,9.25Z" fill="#66cc8a"/><path d="M68.25,27.13a1.69,1.69,0,0,1,.3.95h0a1.2,1.2,0,0,1-.49,1,1.59,1.59,0,0,1-1.08.4h0a1.7,1.7,0,0,1-1.49-.83h0L60,19.92a6.72,6.72,0,0,0-2.22-2.32A6.55,6.55,0,0,0,54.63,17H49.44V27.7A1.74,1.74,0,0,1,49,29a1.56,1.56,0,0,1-1.2.47h0A1.6,1.6,0,0,1,46.56,29a1.74,1.74,0,0,1-.45-1.26h0V1.85A1.59,1.59,0,0,1,46.58.66,1.74,1.74,0,0,1,47.83.21H58.05q4.73,0,7.22,2.1a7.62,7.62,0,0,1,2.49,6.17h0a7.77,7.77,0,0,1-2,5.56,9.13,9.13,0,0,1-5.71,2.55h0a5.11,5.11,0,0,1,1.86,1.07,10.07,10.07,0,0,1,1.64,2.06h0Zm-18.81-13h8.32a7.71,7.71,0,0,0,5-1.4,5.2,5.2,0,0,0,1.66-4.23h0a5.09,5.09,0,0,0-1.64-4.16A7.84,7.84,0,0,0,57.76,3H49.44ZM89.08,8.77a1.62,1.62,0,0,1,1.22.45,1.64,1.64,0,0,1,.43,1.19h0V27.83A1.59,1.59,0,0,1,90.3,29a1.62,1.62,0,0,1-1.22.45h0A1.61,1.61,0,0,1,87.91,29a1.55,1.55,0,0,1-.43-1.14h0V25.82a6.54,6.54,0,0,1-2.66,2.75,7.82,7.82,0,0,1-3.85.95h0a6.93,6.93,0,0,1-5.39-2q-1.81-2-1.81-5.91h0V10.41a1.61,1.61,0,0,1,.45-1.19,1.69,1.69,0,0,1,1.24-.45h0a1.6,1.6,0,0,1,1.21.45,1.64,1.64,0,0,1,.43,1.19h0V21.53a6,6,0,0,0,1.07,3.93,4.22,4.22,0,0,0,3.38,1.26h0A5.54,5.54,0,0,0,85.79,25a6.31,6.31,0,0,0,1.6-4.51h0V10.41a1.62,1.62,0,0,1,.46-1.19,1.66,1.66,0,0,1,1.23-.45Zm18-.08A8.35,8.35,0,0,1,111.68,10a8.67,8.67,0,0,1,3.13,3.69,12.68,12.68,0,0,1,1.12,5.5h0a12.39,12.39,0,0,1-1.12,5.45A8.22,8.22,0,0,1,107,29.52h0a7.93,7.93,0,0,1-4.1-1,6.65,6.65,0,0,1-2.65-2.92h0v9.67a1.62,1.62,0,0,1-.43,1.18,1.66,1.66,0,0,1-1.21.42h0a1.69,1.69,0,0,1-1.24-.45A1.57,1.57,0,0,1,97,35.24h0V10.41a1.61,1.61,0,0,1,.45-1.19,1.69,1.69,0,0,1,1.24-.45h0a1.6,1.6,0,0,1,1.21.45,1.64,1.64,0,0,1,.43,1.19h0v2.23a6.59,6.59,0,0,1,2.65-2.92,7.93,7.93,0,0,1,4.1-1Zm-.66,18.07a5.52,5.52,0,0,0,4.53-2,8.69,8.69,0,0,0,1.6-5.6h0a8.91,8.91,0,0,0-1.6-5.66,5.41,5.41,0,0,0-4.53-2h0a5.39,5.39,0,0,0-4.5,2,8.76,8.76,0,0,0-1.59,5.63h0a8.89,8.89,0,0,0,1.59,5.66,5.4,5.4,0,0,0,4.5,2Zm30.06-2.18a1,1,0,0,1,.78.37,1.35,1.35,0,0,1,.33.94h0c0,.69-.48,1.32-1.44,1.9h0A12.09,12.09,0,0,1,133,29.08a12.45,12.45,0,0,1-3.2.44h0a9.81,9.81,0,0,1-7.35-2.76,10.43,10.43,0,0,1-2.7-7.62h0a11.88,11.88,0,0,1,1.2-5.45A8.88,8.88,0,0,1,124.26,10a9.33,9.33,0,0,1,4.92-1.31h0a8,8,0,0,1,6.22,2.55,10,10,0,0,1,2.3,6.92h0a1.76,1.76,0,0,1-.33,1.19,1.37,1.37,0,0,1-1.07.37H123.05q.38,7.08,6.71,7.08h0a7.61,7.61,0,0,0,2.76-.44A17.82,17.82,0,0,0,135,25.2h0a3.92,3.92,0,0,1,1.44-.62Zm-7.2-13.3A5.58,5.58,0,0,0,125,12.92a7.51,7.51,0,0,0-1.88,4.66h11.65a7.09,7.09,0,0,0-1.52-4.67,5.09,5.09,0,0,0-4-1.63Zm28.89,13.3a1,1,0,0,1,.79.37,1.39,1.39,0,0,1,.32.94h0c0,.69-.48,1.32-1.44,1.9h0a12,12,0,0,1-3.13,1.29,12.58,12.58,0,0,1-3.21.44h0a9.81,9.81,0,0,1-7.35-2.76,10.47,10.47,0,0,1-2.69-7.62h0a12,12,0,0,1,1.19-5.45A8.94,8.94,0,0,1,146,10a9.39,9.39,0,0,1,4.93-1.31h0a8,8,0,0,1,6.22,2.55,10,10,0,0,1,2.29,6.92h0a1.76,1.76,0,0,1-.32,1.19,1.4,1.4,0,0,1-1.07.37H144.75q.36,7.08,6.7,7.08h0a7.61,7.61,0,0,0,2.76-.44,17.3,17.3,0,0,0,2.47-1.16h0a3.92,3.92,0,0,1,1.44-.62Zm-7.2-13.3a5.6,5.6,0,0,0-4.22,1.64,7.57,7.57,0,0,0-1.88,4.66h11.66A7.15,7.15,0,0,0,155,12.91a5.08,5.08,0,0,0-4-1.63Zm33.22,18.15a1.62,1.62,0,0,1-1.73-1.73h0V3.09h-8.85a1.72,1.72,0,0,1-1.16-.37A1.38,1.38,0,0,1,172,1.65h0A1.4,1.4,0,0,1,172.4.57a1.71,1.71,0,0,1,1.16-.36h21.12a1.7,1.7,0,0,1,1.15.36,1.4,1.4,0,0,1,.41,1.08h0a1.38,1.38,0,0,1-.41,1.07,1.71,1.71,0,0,1-1.15.37h-8.85V27.7a1.7,1.7,0,0,1-.46,1.26,1.6,1.6,0,0,1-1.23.47ZM206.33,8.77c1.15-.08,1.72.38,1.72,1.4h0a1.45,1.45,0,0,1-.37,1.05,1.92,1.92,0,0,1-1.27.47h0l-1.24.13a5.53,5.53,0,0,0-4.09,1.95,6.35,6.35,0,0,0-1.34,4h0v10a1.57,1.57,0,0,1-.45,1.23,1.67,1.67,0,0,1-1.19.41h0a1.76,1.76,0,0,1-1.22-.42,1.58,1.58,0,0,1-.47-1.22h0V10.41a1.52,1.52,0,0,1,.49-1.21,1.75,1.75,0,0,1,1.2-.43h0a1.49,1.49,0,0,1,1.1.43,1.53,1.53,0,0,1,.46,1.18h0v2.3a6.18,6.18,0,0,1,2.45-2.76,8.32,8.32,0,0,1,3.65-1.11h0ZM219,8.69q7.54,0,7.54,7.9h0v11.2a1.64,1.64,0,0,1-.43,1.19,1.56,1.56,0,0,1-1.18.45h0a1.56,1.56,0,0,1-1.65-1.64h0v-2a5.92,5.92,0,0,1-2.38,2.73,7,7,0,0,1-3.71,1h0a7.93,7.93,0,0,1-3.55-.79A6.35,6.35,0,0,1,211,26.55a5.39,5.39,0,0,1-1-3.08h0A5,5,0,0,1,211.23,20,6.94,6.94,0,0,1,215,18.13a37.65,37.65,0,0,1,7.33-.55h.9V16.22a5.42,5.42,0,0,0-1-3.62A4.15,4.15,0,0,0,219,11.44h0A12,12,0,0,0,213.29,13h0a3.78,3.78,0,0,1-1.57.7h0a1.05,1.05,0,0,1-.83-.38,1.39,1.39,0,0,1-.32-.94h0a1.59,1.59,0,0,1,.35-1,4.18,4.18,0,0,1,1.13-.89h0a13.36,13.36,0,0,1,3.27-1.29A14.78,14.78,0,0,1,219,8.69Zm-1.35,18.19a5.37,5.37,0,0,0,4.06-1.67,6,6,0,0,0,1.57-4.3h0V19.72h-.73A36.34,36.34,0,0,0,217,20a5.26,5.26,0,0,0-2.7,1,2.7,2.7,0,0,0-.8,2.11h0a3.39,3.39,0,0,0,1.18,2.66,4.24,4.24,0,0,0,2.94,1.05Zm23.26,2.64a9.6,9.6,0,0,1-5-1.28,8.41,8.41,0,0,1-3.32-3.63,11.85,11.85,0,0,1-1.18-5.42h0a11.92,11.92,0,0,1,1.21-5.48A9,9,0,0,1,236,10a9.59,9.59,0,0,1,5-1.31h0a11.44,11.44,0,0,1,3.11.43,8.62,8.62,0,0,1,2.7,1.26h0a3.39,3.39,0,0,1,1,1,1.87,1.87,0,0,1,.31,1.05h0a1.41,1.41,0,0,1-.31.95,1,1,0,0,1-.79.37h0a1.38,1.38,0,0,1-.62-.17,5.3,5.3,0,0,1-.56-.32L245.6,13h0a12.23,12.23,0,0,0-2-1.11,5.91,5.91,0,0,0-2.37-.42h0a5.69,5.69,0,0,0-4.67,2,8.68,8.68,0,0,0-1.66,5.66h0a8.47,8.47,0,0,0,1.66,5.6,5.81,5.81,0,0,0,4.67,2h0a6.43,6.43,0,0,0,2.41-.41,11.25,11.25,0,0,0,2.05-1.12h0a9.62,9.62,0,0,1,.85-.49,1.75,1.75,0,0,1,.71-.2h0a1,1,0,0,1,.76.37,1.38,1.38,0,0,1,.31.94h0a1.73,1.73,0,0,1-.29,1,4,4,0,0,1-1.07,1h0A9.76,9.76,0,0,1,244.14,29a11.46,11.46,0,0,1-3.27.48Zm27.45-2.92a1.78,1.78,0,0,1,.66,1.31h0a1.52,1.52,0,0,1-.42,1.07,1.44,1.44,0,0,1-1.06.45h0a1.75,1.75,0,0,1-1.11-.49h0l-10.74-9.27v8.12a1.61,1.61,0,0,1-.47,1.22,1.74,1.74,0,0,1-1.18.42h0a1.77,1.77,0,0,1-1.22-.42,1.61,1.61,0,0,1-.47-1.22h0V1.65a1.6,1.6,0,0,1,.47-1.22A1.73,1.73,0,0,1,254,0h0a1.7,1.7,0,0,1,1.18.43,1.6,1.6,0,0,1,.47,1.22h0V18.36l9.83-9a1.58,1.58,0,0,1,1.12-.5h0a1.4,1.4,0,0,1,1.06.46,1.44,1.44,0,0,1,.46,1.07h0a1.63,1.63,0,0,1-.58,1.23h0l-8.11,7.24Zm19.73-2a1,1,0,0,1,.78.37,1.34,1.34,0,0,1,.32.94h0c0,.69-.48,1.32-1.44,1.9h0a12,12,0,0,1-3.13,1.29,12.45,12.45,0,0,1-3.2.44h0A9.81,9.81,0,0,1,274,26.76a10.43,10.43,0,0,1-2.7-7.62h0a12,12,0,0,1,1.19-5.45A9,9,0,0,1,275.88,10a9.33,9.33,0,0,1,4.92-1.31h0A8,8,0,0,1,287,11.24a10,10,0,0,1,2.3,6.92h0a1.76,1.76,0,0,1-.33,1.19,1.38,1.38,0,0,1-1.07.37H274.67q.36,7.08,6.71,7.08h0a7.65,7.65,0,0,0,2.76-.44,17.82,17.82,0,0,0,2.47-1.16h0a3.92,3.92,0,0,1,1.44-.62Zm-7.21-13.3a5.61,5.61,0,0,0-4.22,1.64,7.56,7.56,0,0,0-1.87,4.66H286.4a7.1,7.1,0,0,0-1.53-4.67,5.08,5.08,0,0,0-4-1.63Zm23.3-2.51c1.15-.08,1.73.38,1.73,1.4h0a1.49,1.49,0,0,1-.37,1.05,2,2,0,0,1-1.28.47h0l-1.24.13a5.54,5.54,0,0,0-4.09,1.95,6.34,6.34,0,0,0-1.33,4h0v10A1.58,1.58,0,0,1,297.1,29a1.67,1.67,0,0,1-1.19.41h0a1.77,1.77,0,0,1-1.22-.42,1.61,1.61,0,0,1-.47-1.22h0V10.41a1.52,1.52,0,0,1,.5-1.21,1.71,1.71,0,0,1,1.19-.43h0A1.53,1.53,0,0,1,297,9.2a1.56,1.56,0,0,1,.45,1.18h0v2.3a6.3,6.3,0,0,1,2.45-2.76,8.36,8.36,0,0,1,3.65-1.11h0Z" fill="#66cc8a"/></g></g></svg>